<mxfile host="app.diagrams.net" agent="Mozilla/5.0 (Windows NT 10.0; Win64; x64; rv:138.0) Gecko/20100101 Firefox/138.0" version="27.0.9">
  <diagram name="Page-1" id="0SZpv4x7O6mDty1r8Q1A">
    <mxGraphModel dx="693" dy="1256" grid="1" gridSize="10" guides="1" tooltips="1" connect="1" arrows="1" fold="1" page="1" pageScale="1" pageWidth="850" pageHeight="1100" math="0" shadow="0">
      <root>
        <mxCell id="0" />
        <mxCell id="1" parent="0" />
        <mxCell id="e-KfO60Gkx8D5sZhYDlZ-19" style="rounded=0;orthogonalLoop=1;jettySize=auto;html=1;dashed=1;dashPattern=8 8;" edge="1" parent="1" source="e-KfO60Gkx8D5sZhYDlZ-3" target="e-KfO60Gkx8D5sZhYDlZ-13">
          <mxGeometry relative="1" as="geometry" />
        </mxCell>
        <mxCell id="e-KfO60Gkx8D5sZhYDlZ-3" value="«Component»&lt;br&gt;&lt;b&gt;БД фармацевтов&lt;/b&gt;" style="html=1;dropTarget=0;whiteSpace=wrap;" vertex="1" parent="1">
          <mxGeometry x="60" y="80" width="170" height="80" as="geometry" />
        </mxCell>
        <mxCell id="e-KfO60Gkx8D5sZhYDlZ-4" value="" style="shape=module;jettyWidth=8;jettyHeight=4;" vertex="1" parent="e-KfO60Gkx8D5sZhYDlZ-3">
          <mxGeometry x="1" width="20" height="20" relative="1" as="geometry">
            <mxPoint x="-27" y="7" as="offset" />
          </mxGeometry>
        </mxCell>
        <mxCell id="e-KfO60Gkx8D5sZhYDlZ-20" style="rounded=0;orthogonalLoop=1;jettySize=auto;html=1;dashed=1;dashPattern=8 8;" edge="1" parent="1" source="e-KfO60Gkx8D5sZhYDlZ-5" target="e-KfO60Gkx8D5sZhYDlZ-13">
          <mxGeometry relative="1" as="geometry" />
        </mxCell>
        <mxCell id="e-KfO60Gkx8D5sZhYDlZ-5" value="«Component»&lt;br&gt;&lt;b&gt;БД Заказов&lt;/b&gt;" style="html=1;dropTarget=0;whiteSpace=wrap;" vertex="1" parent="1">
          <mxGeometry x="270" y="80" width="170" height="80" as="geometry" />
        </mxCell>
        <mxCell id="e-KfO60Gkx8D5sZhYDlZ-6" value="" style="shape=module;jettyWidth=8;jettyHeight=4;" vertex="1" parent="e-KfO60Gkx8D5sZhYDlZ-5">
          <mxGeometry x="1" width="20" height="20" relative="1" as="geometry">
            <mxPoint x="-27" y="7" as="offset" />
          </mxGeometry>
        </mxCell>
        <mxCell id="e-KfO60Gkx8D5sZhYDlZ-21" style="rounded=0;orthogonalLoop=1;jettySize=auto;html=1;dashed=1;dashPattern=8 8;" edge="1" parent="1" source="e-KfO60Gkx8D5sZhYDlZ-7" target="e-KfO60Gkx8D5sZhYDlZ-13">
          <mxGeometry relative="1" as="geometry" />
        </mxCell>
        <mxCell id="e-KfO60Gkx8D5sZhYDlZ-7" value="«Component»&lt;br&gt;&lt;b&gt;БД Пользователей&lt;/b&gt;" style="html=1;dropTarget=0;whiteSpace=wrap;" vertex="1" parent="1">
          <mxGeometry x="500" y="80" width="170" height="80" as="geometry" />
        </mxCell>
        <mxCell id="e-KfO60Gkx8D5sZhYDlZ-8" value="" style="shape=module;jettyWidth=8;jettyHeight=4;" vertex="1" parent="e-KfO60Gkx8D5sZhYDlZ-7">
          <mxGeometry x="1" width="20" height="20" relative="1" as="geometry">
            <mxPoint x="-27" y="7" as="offset" />
          </mxGeometry>
        </mxCell>
        <mxCell id="e-KfO60Gkx8D5sZhYDlZ-9" value="«Component»&lt;br&gt;&lt;b&gt;АМР Фармацевта&lt;/b&gt;" style="html=1;dropTarget=0;whiteSpace=wrap;" vertex="1" parent="1">
          <mxGeometry x="425" y="370" width="170" height="80" as="geometry" />
        </mxCell>
        <mxCell id="e-KfO60Gkx8D5sZhYDlZ-10" value="" style="shape=module;jettyWidth=8;jettyHeight=4;" vertex="1" parent="e-KfO60Gkx8D5sZhYDlZ-9">
          <mxGeometry x="1" width="20" height="20" relative="1" as="geometry">
            <mxPoint x="-27" y="7" as="offset" />
          </mxGeometry>
        </mxCell>
        <mxCell id="e-KfO60Gkx8D5sZhYDlZ-18" style="rounded=0;orthogonalLoop=1;jettySize=auto;html=1;entryX=0.5;entryY=1;entryDx=0;entryDy=0;dashed=1;dashPattern=8 8;" edge="1" parent="1" source="e-KfO60Gkx8D5sZhYDlZ-11" target="e-KfO60Gkx8D5sZhYDlZ-13">
          <mxGeometry relative="1" as="geometry" />
        </mxCell>
        <mxCell id="e-KfO60Gkx8D5sZhYDlZ-11" value="«Component»&lt;br&gt;&lt;b&gt;Интерфейс пользователя&lt;/b&gt;" style="html=1;dropTarget=0;whiteSpace=wrap;" vertex="1" parent="1">
          <mxGeometry x="70" y="570" width="170" height="80" as="geometry" />
        </mxCell>
        <mxCell id="e-KfO60Gkx8D5sZhYDlZ-12" value="" style="shape=module;jettyWidth=8;jettyHeight=4;" vertex="1" parent="e-KfO60Gkx8D5sZhYDlZ-11">
          <mxGeometry x="1" width="20" height="20" relative="1" as="geometry">
            <mxPoint x="-27" y="7" as="offset" />
          </mxGeometry>
        </mxCell>
        <mxCell id="e-KfO60Gkx8D5sZhYDlZ-22" style="rounded=0;orthogonalLoop=1;jettySize=auto;html=1;dashed=1;dashPattern=8 8;" edge="1" parent="1" source="e-KfO60Gkx8D5sZhYDlZ-13" target="e-KfO60Gkx8D5sZhYDlZ-9">
          <mxGeometry relative="1" as="geometry" />
        </mxCell>
        <mxCell id="e-KfO60Gkx8D5sZhYDlZ-13" value="«Component»&lt;br&gt;&lt;b&gt;Сервер аптеки&lt;/b&gt;" style="html=1;dropTarget=0;whiteSpace=wrap;" vertex="1" parent="1">
          <mxGeometry x="70" y="370" width="170" height="80" as="geometry" />
        </mxCell>
        <mxCell id="e-KfO60Gkx8D5sZhYDlZ-14" value="" style="shape=module;jettyWidth=8;jettyHeight=4;" vertex="1" parent="e-KfO60Gkx8D5sZhYDlZ-13">
          <mxGeometry x="1" width="20" height="20" relative="1" as="geometry">
            <mxPoint x="-27" y="7" as="offset" />
          </mxGeometry>
        </mxCell>
        <mxCell id="e-KfO60Gkx8D5sZhYDlZ-17" value="" style="ellipse;whiteSpace=wrap;html=1;align=center;aspect=fixed;fillColor=none;strokeColor=none;resizable=0;perimeter=centerPerimeter;rotatable=0;allowArrows=0;points=[];outlineConnect=1;" vertex="1" parent="1">
          <mxGeometry x="220" y="240" width="10" height="10" as="geometry" />
        </mxCell>
        <mxCell id="e-KfO60Gkx8D5sZhYDlZ-23" value="«Component»&lt;br&gt;&lt;b&gt;Товар&lt;/b&gt;" style="html=1;dropTarget=0;whiteSpace=wrap;" vertex="1" parent="1">
          <mxGeometry x="425" y="640" width="170" height="80" as="geometry" />
        </mxCell>
        <mxCell id="e-KfO60Gkx8D5sZhYDlZ-24" value="" style="shape=module;jettyWidth=8;jettyHeight=4;" vertex="1" parent="e-KfO60Gkx8D5sZhYDlZ-23">
          <mxGeometry x="1" width="20" height="20" relative="1" as="geometry">
            <mxPoint x="-27" y="7" as="offset" />
          </mxGeometry>
        </mxCell>
        <mxCell id="e-KfO60Gkx8D5sZhYDlZ-25" value="«Component»&lt;br&gt;&lt;b&gt;Заказ&lt;/b&gt;" style="html=1;dropTarget=0;whiteSpace=wrap;" vertex="1" parent="1">
          <mxGeometry x="425" y="510" width="170" height="80" as="geometry" />
        </mxCell>
        <mxCell id="e-KfO60Gkx8D5sZhYDlZ-26" value="" style="shape=module;jettyWidth=8;jettyHeight=4;" vertex="1" parent="e-KfO60Gkx8D5sZhYDlZ-25">
          <mxGeometry x="1" width="20" height="20" relative="1" as="geometry">
            <mxPoint x="-27" y="7" as="offset" />
          </mxGeometry>
        </mxCell>
        <mxCell id="e-KfO60Gkx8D5sZhYDlZ-32" value="" style="rounded=0;orthogonalLoop=1;jettySize=auto;html=1;endArrow=halfCircle;endFill=0;endSize=6;strokeWidth=1;sketch=0;" edge="1" target="e-KfO60Gkx8D5sZhYDlZ-34" parent="1" source="e-KfO60Gkx8D5sZhYDlZ-25">
          <mxGeometry relative="1" as="geometry">
            <mxPoint x="540" y="485" as="sourcePoint" />
          </mxGeometry>
        </mxCell>
        <mxCell id="e-KfO60Gkx8D5sZhYDlZ-33" value="" style="rounded=0;orthogonalLoop=1;jettySize=auto;html=1;endArrow=oval;endFill=0;sketch=0;sourcePerimeterSpacing=0;targetPerimeterSpacing=0;endSize=10;exitX=0.5;exitY=1;exitDx=0;exitDy=0;" edge="1" target="e-KfO60Gkx8D5sZhYDlZ-34" parent="1" source="e-KfO60Gkx8D5sZhYDlZ-9">
          <mxGeometry relative="1" as="geometry">
            <mxPoint x="500" y="485" as="sourcePoint" />
          </mxGeometry>
        </mxCell>
        <mxCell id="e-KfO60Gkx8D5sZhYDlZ-34" value="Товар" style="ellipse;whiteSpace=wrap;html=1;align=center;aspect=fixed;fillColor=none;strokeColor=none;resizable=0;perimeter=centerPerimeter;rotatable=0;allowArrows=0;points=[];outlineConnect=1;" vertex="1" parent="1">
          <mxGeometry x="505" y="470" width="10" height="10" as="geometry" />
        </mxCell>
        <mxCell id="e-KfO60Gkx8D5sZhYDlZ-38" value="" style="rounded=0;orthogonalLoop=1;jettySize=auto;html=1;endArrow=halfCircle;endFill=0;endSize=6;strokeWidth=1;sketch=0;exitX=0.542;exitY=0.003;exitDx=0;exitDy=0;exitPerimeter=0;" edge="1" parent="1" source="e-KfO60Gkx8D5sZhYDlZ-23">
          <mxGeometry relative="1" as="geometry">
            <mxPoint x="375" y="900" as="sourcePoint" />
            <mxPoint x="520" y="610" as="targetPoint" />
          </mxGeometry>
        </mxCell>
        <mxCell id="e-KfO60Gkx8D5sZhYDlZ-39" value="" style="rounded=0;orthogonalLoop=1;jettySize=auto;html=1;endArrow=oval;endFill=0;sketch=0;sourcePerimeterSpacing=0;targetPerimeterSpacing=0;endSize=10;exitX=0.55;exitY=1.016;exitDx=0;exitDy=0;exitPerimeter=0;" edge="1" parent="1" source="e-KfO60Gkx8D5sZhYDlZ-25">
          <mxGeometry relative="1" as="geometry">
            <mxPoint x="375" y="840" as="sourcePoint" />
            <mxPoint x="520" y="610" as="targetPoint" />
          </mxGeometry>
        </mxCell>
        <mxCell id="e-KfO60Gkx8D5sZhYDlZ-40" value="Товар" style="ellipse;whiteSpace=wrap;html=1;align=center;aspect=fixed;fillColor=none;strokeColor=none;resizable=0;perimeter=centerPerimeter;rotatable=0;allowArrows=0;points=[];outlineConnect=1;" vertex="1" parent="1">
          <mxGeometry x="540" y="610" width="10" height="10" as="geometry" />
        </mxCell>
      </root>
    </mxGraphModel>
  </diagram>
</mxfile>
